<?xml version="1.0" standalone="no"?>
<!DOCTYPE svg PUBLIC "-//W3C//DTD SVG 20010904//EN"
 "http://www.w3.org/TR/2001/REC-SVG-20010904/DTD/svg10.dtd">
<svg version="1.0" xmlns="http://www.w3.org/2000/svg"
 width="200.000000pt" height="200.000000pt" viewBox="0 0 200.000000 200.000000"
 preserveAspectRatio="xMidYMid meet">

<g transform="translate(0.000000,200.000000) scale(0.100000,-0.100000)"
fill="hsl(0, 77%, 47%)" stroke="none">
<path d="M830 1816 c-312 -72 -554 -302 -637 -606 -25 -91 -25 -329 0 -420
120 -441 571 -707 1009 -596 570 144 814 811 473 1291 -106 149 -282 272 -460
321 -79 22 -309 28 -385 10z m287 -232 c58 -47 78 -88 78 -161 0 -52 -4 -68
-30 -105 -42 -58 -96 -88 -163 -88 -214 0 -277 273 -87 375 21 11 49 15 97 13
57 -3 72 -8 105 -34z m-485 -394 c82 -23 138 -102 138 -192 0 -67 -30 -121
-88 -163 -37 -26 -53 -30 -105 -30 -73 0 -114 20 -161 78 -29 36 -31 44 -31
117 0 72 2 81 31 117 35 44 105 83 149 83 16 0 47 -5 67 -10z m878 -12 c24
-13 58 -40 74 -61 29 -36 31 -45 31 -116 0 -70 -3 -81 -29 -115 -118 -156
-356 -79 -356 114 0 148 151 243 280 178z m-415 -431 c21 -12 53 -42 70 -65
26 -37 30 -53 30 -105 0 -73 -20 -114 -78 -161 -36 -29 -44 -31 -117 -31 -72
0 -81 2 -117 31 -153 121 -76 352 117 353 39 1 67 -6 95 -22z"/>
</g>
</svg>
